<svg xmlns="http://www.w3.org/2000/svg" version="1.1" xmlns:xlink="http://www.w3.org/1999/xlink" xmlns:svgjs="http://svgjs.dev/svgjs" width="2000" height="318" viewBox="0 0 2000 318"><g transform="matrix(1,0,0,1,-1.2121212121212466,13.415142022419218)"><svg viewBox="0 0 396 63" data-background-color="#ffffff" preserveAspectRatio="xMidYMid meet" height="318" width="2000" xmlns="http://www.w3.org/2000/svg" xmlns:xlink="http://www.w3.org/1999/xlink"><g id="tight-bounds" transform="matrix(1,0,0,1,0.2400000000000091,0.39243062907240756)"><svg viewBox="0 0 395.52 62.215138741855164" height="62.215138741855164" width="395.52"><g><svg viewBox="0 0 505.333176895009 79.48870780588952" height="62.215138741855164" width="395.52"><g><rect width="4.927914410441535" height="79.48870780588952" x="91.98496298079384" y="0" fill="#a61713" opacity="1" stroke-width="0" stroke="transparent" fill-opacity="1" class="rect-yte-0" data-fill-palette-color="primary" rx="1%" id="yte-0" data-palette-color="#a61713"></rect></g><g transform="matrix(1,0,0,1,109.81317689500902,0.19773310399474298)"><svg viewBox="0 0 395.52 79.09324159790003" height="79.09324159790003" width="395.52"><g id="textblocktransform"><svg viewBox="0 0 395.52 79.09324159790003" height="79.09324159790003" width="395.52" id="textblock"><g><svg viewBox="0 0 395.52 54.64468859085063" height="54.64468859085063" width="395.52"><g transform="matrix(1,0,0,1,0,0)"><svg width="395.52" viewBox="1.5 -37 272.13 37.6" height="54.64468859085063" data-palette-color="#a61713"><path d="M13.2 0.6L13.2 0.6Q9.55 0.6 6.55-0.38 3.55-1.35 1.5-2.95L1.5-2.95 3.9-6.95Q5.7-5.45 7.95-4.5 10.2-3.55 13.2-3.55L13.2-3.55Q16.8-3.55 18.9-5.05 21-6.55 21-9.1L21-9.1Q21-10.55 20.4-11.68 19.8-12.8 18.07-13.88 16.35-14.95 13-16.2L13-16.2Q9.4-17.6 7.25-19.03 5.1-20.45 4.17-22.28 3.25-24.1 3.25-26.6L3.25-26.6Q3.25-29.1 4.63-31.13 6-33.15 8.68-34.38 11.35-35.6 15.15-35.6L15.15-35.6Q18.25-35.6 20.73-34.98 23.2-34.35 25.55-33.2L25.55-33.2 23.8-29.15Q22.1-30.15 19.83-30.83 17.55-31.5 15.05-31.5L15.05-31.5Q11.75-31.5 9.85-30.2 7.95-28.9 7.95-26.85L7.95-26.85Q7.95-25.55 8.5-24.55 9.05-23.55 10.68-22.6 12.3-21.65 15.55-20.45L15.55-20.45Q19.45-19 21.73-17.4 24-15.8 24.95-13.93 25.9-12.05 25.9-9.65L25.9-9.65Q25.9-6.4 24.28-4.1 22.65-1.8 19.78-0.6 16.9 0.6 13.2 0.6ZM40.9 0.6L40.9 0.6Q38.65 0.6 36.65-0.35 34.65-1.3 33.4-3.43 32.15-5.55 32.15-9.1L32.15-9.1 32.15-26 36.65-26 36.65-9.7Q36.65-6.65 37.95-5.03 39.25-3.4 41.75-3.4L41.75-3.4Q43.8-3.4 45.72-4.23 47.65-5.05 49.15-6.45L49.15-6.45 49.15-26 53.65-26 53.65-6.75Q53.65-4.6 54.57-3.93 55.5-3.25 56.6-3.25L56.6-3.25 55.65 0.25Q51 0.25 49.9-3.45L49.9-3.45Q48.15-1.65 45.85-0.53 43.55 0.6 40.9 0.6ZM67.09 0L62.6 0 62.6-26 66.95-26 66.95-21.65Q68.34-23.75 70.5-25.18 72.65-26.6 75.4-26.6L75.4-26.6Q78.5-26.6 80.47-25.1 82.45-23.6 83.25-21.1L83.25-21.1Q84.8-23.4 86.92-25 89.05-26.6 92.2-26.6L92.2-26.6Q96.45-26.6 98.52-23.93 100.59-21.25 100.59-16.95L100.59-16.95 100.59 0 96.09 0 96.09-16.6Q96.09-19.3 94.84-20.98 93.59-22.65 91.4-22.65L91.4-22.65Q89.15-22.65 87.22-20.98 85.3-19.3 83.84-17.05L83.84-17.05 83.84 0 79.34 0 79.34-16.6Q79.34-19.3 78.09-20.98 76.84-22.65 74.65-22.65L74.65-22.65Q72.45-22.65 70.5-21.03 68.55-19.4 67.09-17.2L67.09-17.2 67.09 0ZM112.84 0L108.34 0 108.34-26 112.69-26 112.69-21.65Q114.09-23.75 116.24-25.18 118.39-26.6 121.14-26.6L121.14-26.6Q124.24-26.6 126.22-25.1 128.19-23.6 128.99-21.1L128.99-21.1Q130.54-23.4 132.67-25 134.79-26.6 137.94-26.6L137.94-26.6Q142.19-26.6 144.27-23.93 146.34-21.25 146.34-16.95L146.34-16.95 146.34 0 141.84 0 141.84-16.6Q141.84-19.3 140.59-20.98 139.34-22.65 137.14-22.65L137.14-22.65Q134.89-22.65 132.97-20.98 131.04-19.3 129.59-17.05L129.59-17.05 129.59 0 125.09 0 125.09-16.6Q125.09-19.3 123.84-20.98 122.59-22.65 120.39-22.65L120.39-22.65Q118.19-22.65 116.24-21.03 114.29-19.4 112.84-17.2L112.84-17.2 112.84 0ZM164.04 0.6L164.04 0.6Q160.79 0.6 158.14-1.05 155.49-2.7 153.91-5.73 152.34-8.75 152.34-12.85L152.34-12.85Q152.34-16.75 153.91-19.85 155.49-22.95 158.27-24.78 161.04-26.6 164.64-26.6L164.64-26.6Q166.89-26.6 168.72-25.83 170.54-25.05 171.89-23.9L171.89-23.9 171.89-26 175.99-26 175.99-6.3Q175.99-4.4 176.92-3.83 177.84-3.25 178.94-3.25L178.94-3.25 177.99 0.25Q173.19 0.25 172.19-3.65L172.19-3.65Q171.04-2.05 169.06-0.73 167.09 0.6 164.04 0.6ZM165.04-3.4L165.04-3.4Q166.94-3.4 168.64-4.33 170.34-5.25 171.49-6.65L171.49-6.65 171.49-20.6Q170.14-21.55 168.52-22.13 166.89-22.7 165.09-22.7L165.09-22.7Q162.69-22.7 160.87-21.48 159.04-20.25 157.99-18.07 156.94-15.9 156.94-13L156.94-13Q156.94-10.2 157.99-8.03 159.04-5.85 160.89-4.63 162.74-3.4 165.04-3.4ZM206.24 0L185.44 0 185.44-35 190.19-35 190.19-4.25 206.24-4.25 206.24 0ZM214.99 0L210.49 0 210.49-26 214.99-26 214.99 0ZM212.74-30.45L212.74-30.45Q211.44-30.45 210.51-31.4 209.59-32.35 209.59-33.6L209.59-33.6Q209.59-35.05 210.44-35.9 211.29-36.75 212.74-36.75L212.74-36.75Q214.04-36.75 214.96-35.83 215.89-34.9 215.89-33.6L215.89-33.6Q215.89-32.2 215.04-31.33 214.19-30.45 212.74-30.45ZM227.48 0L222.98 0 222.98-26 227.33-26 227.33-21.65Q228.73-23.75 230.91-25.18 233.08-26.6 236.08-26.6L236.08-26.6Q240.48-26.6 242.66-23.95 244.83-21.3 244.83-16.95L244.83-16.95 244.83 0 240.33 0 240.33-16.45Q240.33-19.25 239.01-20.95 237.68-22.65 235.33-22.65L235.33-22.65Q233.03-22.65 230.98-21.03 228.93-19.4 227.48-17.2L227.48-17.2 227.48 0ZM273.63-2.5L270.53 0.5 257.08-13.35 257.08 0 252.58 0 252.58-37 257.08-37 257.08-15.85 268.83-26.5 271.43-23.65 261.38-14.75 273.63-2.5Z" opacity="1" transform="matrix(1,0,0,1,0,0)" fill="#a61713" class="wordmark-text-0" data-fill-palette-color="primary" id="text-0"></path></svg></g></svg></g><g transform="matrix(1,0,0,1,0,67.54498809462427)"><svg viewBox="0 0 232.20979199999996 11.548253503275756" height="11.548253503275756" width="232.20979199999996"><g transform="matrix(1,0,0,1,0,0)"><svg width="232.20979199999996" viewBox="0.42 -33.75 699.5 34.79" height="11.548253503275756" data-palette-color="#a61713"><path d="M19.72-19.24L12.47 1.04 0.42-31.25 4.44-31.25 11.53-12.5Q11.91-11.53 12.15-10.64 12.4-9.76 12.67-8.54L12.67-8.54Q12.95-9.76 13.21-10.64 13.47-11.53 13.82-12.5L13.82-12.5 20.97-32.29 28.09-12.5Q28.4-11.63 28.7-10.75 28.99-9.86 29.24-8.54L29.24-8.54Q29.51-9.86 29.79-10.75 30.07-11.63 30.42-12.5L30.42-12.5 37.5-31.25 41.25-31.25 29.24 1.04 22.01-19.24Q21.7-20.14 21.42-20.99 21.15-21.84 20.87-23.16L20.87-23.16Q20.59-21.84 20.31-20.99 20.03-20.14 19.72-19.24L19.72-19.24ZM48.75 0L45 0 45-33.33 48.75-33.33 48.75-17.88Q49.93-19.51 51.66-20.38 53.4-21.25 55.38-21.25L55.38-21.25Q57.6-21.25 59.49-20.16 61.39-19.06 62.57-17 63.75-14.93 63.75-11.98L63.75-11.98 63.75 0 60 0 60-11.46Q60-13.92 58.52-15.82 57.05-17.71 54.37-17.71L54.37-17.71Q52.19-17.71 50.47-16.13 48.75-14.55 48.75-11.56L48.75-11.56 48.75 0ZM79.93 0.42L79.93 0.42Q76.66 0.42 74.07-1.04 71.49-2.5 70.01-5.02 68.54-7.53 68.54-10.63L68.54-10.63Q68.54-13.58 69.96-15.99 71.38-18.4 73.8-19.83 76.21-21.25 79.13-21.25L79.13-21.25Q82.01-21.25 84.4-19.88 86.8-18.51 88.22-16.18 89.65-13.85 89.65-10.9L89.65-10.9 89.65-9.38 76.04-9.38Q75.13-9.38 74.2-9.44 73.26-9.51 72.36-9.65L72.36-9.65Q72.74-6.88 74.87-5 77.01-3.13 79.96-3.13L79.96-3.13Q81.94-3.13 83.64-4.03 85.34-4.93 86.38-6.42L86.38-6.42 87.43-2.15Q85.93-0.94 84.01-0.26 82.08 0.42 79.93 0.42ZM72.25-12.19L72.25-12.19Q74.13-12.5 76.04-12.5L76.04-12.5 82.95-12.5Q83.71-12.5 84.46-12.45 85.2-12.4 85.97-12.33L85.97-12.33Q85.48-14.76 83.54-16.34 81.59-17.92 79.13-17.92L79.13-17.92Q76.59-17.92 74.68-16.23 72.77-14.55 72.25-12.19ZM98.4 0L94.65 0 94.65-20.83 98.12-20.83 98.12-17.01Q99.23-18.85 101.07-19.95 102.91-21.04 105.44-21.04L105.44-21.04 106.38-17.29Q105.72-17.5 104.85-17.5L104.85-17.5Q101.94-17.5 100.17-15.64 98.4-13.78 98.4-10.35L98.4-10.35 98.4 0ZM120.2 0.42L120.2 0.42Q116.93 0.42 114.35-1.04 111.76-2.5 110.29-5.02 108.81-7.53 108.81-10.63L108.81-10.63Q108.81-13.58 110.23-15.99 111.66-18.4 114.07-19.83 116.48-21.25 119.4-21.25L119.4-21.25Q122.28-21.25 124.68-19.88 127.07-18.51 128.5-16.18 129.92-13.85 129.92-10.9L129.92-10.9 129.92-9.38 116.31-9.38Q115.41-9.38 114.47-9.44 113.53-9.51 112.63-9.65L112.63-9.65Q113.01-6.88 115.15-5 117.28-3.13 120.23-3.13L120.23-3.13Q122.21-3.13 123.91-4.03 125.62-4.93 126.66-6.42L126.66-6.42 127.7-2.15Q126.21-0.94 124.28-0.26 122.35 0.42 120.2 0.42ZM112.52-12.19L112.52-12.19Q114.4-12.5 116.31-12.5L116.31-12.5 123.22-12.5Q123.98-12.5 124.73-12.45 125.48-12.4 126.24-12.33L126.24-12.33Q125.75-14.76 123.81-16.34 121.87-17.92 119.4-17.92L119.4-17.92Q116.87-17.92 114.96-16.23 113.05-14.55 112.52-12.19ZM161.17 0L146.37 0 146.37-31.25 150.33-31.25 150.33-3.54 161.17-3.54 161.17 0ZM169.91 0L166.16 0 166.16-20.83 169.91-20.83 169.91 0ZM168.04-24.58L168.04-24.58Q167-24.58 166.27-25.31 165.54-26.04 165.54-27.08L165.54-27.08Q165.54-28.16 166.27-28.87 167-29.58 168.04-29.58L168.04-29.58Q169.11-29.58 169.83-28.87 170.54-28.16 170.54-27.08L170.54-27.08Q170.54-26.04 169.83-25.31 169.11-24.58 168.04-24.58ZM180.33 0L176.58 0 176.58-20.83 180.05-20.83 180.05-17.47Q181.2-19.31 183.02-20.28 184.84-21.25 186.96-21.25L186.96-21.25Q189.18-21.25 191.07-20.16 192.97-19.06 194.15-17 195.33-14.93 195.33-11.98L195.33-11.98 195.33 0 191.58 0 191.58-11.46Q191.58-13.92 190.1-15.82 188.63-17.71 185.95-17.71L185.95-17.71Q183.76-17.71 182.05-16.13 180.33-14.55 180.33-11.56L180.33-11.56 180.33 0ZM219.91 0L215.15 0 205.74-11.46 213.48-20.83 217.82-20.83 210.22-11.74 219.91 0ZM205.32 0L201.57 0 201.57-33.33 205.32-33.33 205.32 0ZM228.83 0.42L228.83 0.42Q227.23 0.42 225.41-0.19 223.59-0.8 222.27-2.22L222.27-2.22 223.31-6.32Q224.28-4.69 225.81-3.73 227.34-2.78 229.07-2.78L229.07-2.78Q230.74-2.78 231.57-3.59 232.41-4.41 232.41-5.59L232.41-5.59Q232.41-6.94 231.52-7.57 230.63-8.19 229.94-8.44L229.94-8.44 227.13-9.51Q226.36-9.83 225.29-10.43 224.21-11.04 223.41-12.19 222.61-13.33 222.61-15.17L222.61-15.17Q222.61-16.84 223.41-18.23 224.21-19.62 225.67-20.43 227.13-21.25 229.11-21.25L229.11-21.25Q230.67-21.25 232.37-20.69 234.07-20.14 235.25-18.82L235.25-18.82 234.21-14.72Q233.38-16.25 231.95-17.15 230.53-18.06 229-18.06L229-18.06Q227.58-18.06 226.76-17.26 225.95-16.46 225.95-15.42L225.95-15.42Q225.95-14.58 226.5-13.92 227.06-13.26 228.17-12.85L228.17-12.85 230.98-11.77Q231.75-11.49 232.87-10.87 234-10.24 234.87-9.06 235.74-7.88 235.74-5.87L235.74-5.87Q235.74-3.06 233.78-1.32 231.82 0.42 228.83 0.42ZM258.23-27.71L249.9-27.71 249.9-31.25 270.53-31.25 270.53-27.71 262.19-27.71 262.19 0 258.23 0 258.23-27.71ZM279.27 0L275.52 0 275.52-20.83 279-20.83 279-17.01Q280.11-18.85 281.95-19.95 283.79-21.04 286.32-21.04L286.32-21.04 287.26-17.29Q286.6-17.5 285.73-17.5L285.73-17.5Q282.81-17.5 281.04-15.64 279.27-13.78 279.27-10.35L279.27-10.35 279.27 0ZM300.07 0.28L300.07 0.28Q297.22 0.28 294.86-1.16 292.5-2.6 291.09-5.03 289.69-7.47 289.69-10.42L289.69-10.42Q289.69-13.37 291.09-15.8 292.5-18.23 294.86-19.67 297.22-21.11 300.07-21.11L300.07-21.11Q302.22-21.11 304.11-20.31 306.01-19.51 307.4-18.09L307.4-18.09 307.4-20.83 310.87-20.83 310.87 0 307.4 0 307.4-2.74Q306.01-1.35 304.11-0.54 302.22 0.28 300.07 0.28ZM300.56-3.13L300.56-3.13Q302.53-3.13 304.15-4.11 305.76-5.1 306.72-6.75 307.67-8.4 307.67-10.42L307.67-10.42Q307.67-12.43 306.72-14.08 305.76-15.73 304.15-16.72 302.53-17.71 300.56-17.71L300.56-17.71Q298.58-17.71 296.96-16.72 295.35-15.73 294.39-14.08 293.44-12.43 293.44-10.42L293.44-10.42Q293.44-8.4 294.39-6.75 295.35-5.1 296.96-4.11 298.58-3.13 300.56-3.13ZM321.28 0L317.53 0 317.53-20.83 321-20.83 321-17.47Q322.15-19.31 323.97-20.28 325.8-21.25 327.91-21.25L327.91-21.25Q330.14-21.25 332.03-20.16 333.92-19.06 335.1-17 336.28-14.93 336.28-11.98L336.28-11.98 336.28 0 332.53 0 332.53-11.46Q332.53-13.92 331.06-15.82 329.58-17.71 326.91-17.71L326.91-17.71Q324.72-17.71 323-16.13 321.28-14.55 321.28-11.56L321.28-11.56 321.28 0ZM347.91 0.42L347.91 0.42Q346.31 0.42 344.49-0.19 342.67-0.8 341.35-2.22L341.35-2.22 342.39-6.32Q343.36-4.69 344.89-3.73 346.42-2.78 348.15-2.78L348.15-2.78Q349.82-2.78 350.65-3.59 351.49-4.41 351.49-5.59L351.49-5.59Q351.49-6.94 350.6-7.57 349.72-8.19 349.02-8.44L349.02-8.44 346.21-9.51Q345.45-9.83 344.37-10.43 343.29-11.04 342.49-12.19 341.7-13.33 341.7-15.17L341.7-15.17Q341.7-16.84 342.49-18.23 343.29-19.62 344.75-20.43 346.21-21.25 348.19-21.25L348.19-21.25Q349.75-21.25 351.45-20.69 353.15-20.14 354.34-18.82L354.34-18.82 353.29-14.72Q352.46-16.25 351.04-17.15 349.61-18.06 348.09-18.06L348.09-18.06Q346.66-18.06 345.85-17.26 345.03-16.46 345.03-15.42L345.03-15.42Q345.03-14.58 345.59-13.92 346.14-13.26 347.25-12.85L347.25-12.85 350.06-11.77Q350.83-11.49 351.96-10.87 353.09-10.24 353.95-9.06 354.82-7.88 354.82-5.87L354.82-5.87Q354.82-3.06 352.86-1.32 350.9 0.42 347.91 0.42ZM366.42 0L362.67 0 362.67-17.71 357.94-17.71 357.94-20.83 362.77-20.83 362.77-26.81Q362.77-30.21 364.78-31.98 366.8-33.75 369.58-33.75L369.58-33.75Q370.62-33.75 371.71-33.51 372.8-33.26 373.78-32.67L373.78-32.67 372.87-29.03Q371.42-30.63 369.47-30.63L369.47-30.63Q368.29-30.63 367.3-29.83 366.31-29.03 366.31-26.74L366.31-26.74 366.31-20.83 371.49-20.83 371.49-17.71 366.42-17.71 366.42 0ZM385.37 0.42L385.37 0.42Q382.35 0.42 379.85-1.04 377.35-2.5 375.88-4.97 374.4-7.43 374.4-10.42L374.4-10.42Q374.4-13.44 375.88-15.89 377.35-18.33 379.85-19.79 382.35-21.25 385.37-21.25L385.37-21.25Q388.43-21.25 390.91-19.79 393.39-18.33 394.87-15.89 396.34-13.44 396.34-10.42L396.34-10.42Q396.34-7.43 394.87-4.97 393.39-2.5 390.91-1.04 388.43 0.42 385.37 0.42ZM385.37-3.13L385.37-3.13Q387.39-3.13 389.02-4.11 390.65-5.1 391.62-6.75 392.59-8.4 392.59-10.42L392.59-10.42Q392.59-12.43 391.62-14.08 390.65-15.73 389.02-16.72 387.39-17.71 385.37-17.71L385.37-17.71Q383.36-17.71 381.73-16.72 380.09-15.73 379.12-14.08 378.15-12.43 378.15-10.42L378.15-10.42Q378.15-8.4 379.12-6.75 380.09-5.1 381.73-4.11 383.36-3.13 385.37-3.13ZM405.3 0L401.55 0 401.55-20.83 405.02-20.83 405.02-17.01Q406.13-18.85 407.97-19.95 409.81-21.04 412.35-21.04L412.35-21.04 413.29-17.29Q412.63-17.5 411.76-17.5L411.76-17.5Q408.84-17.5 407.07-15.64 405.3-13.78 405.3-10.35L405.3-10.35 405.3 0ZM420.92 0L417.17 0 417.17-20.83 420.64-20.83 420.64-17.85Q421.79-19.55 423.54-20.4 425.3-21.25 427.24-21.25L427.24-21.25Q429.36-21.25 431.13-20.26 432.9-19.27 433.98-17.5L433.98-17.5Q435.19-19.38 437.12-20.31 439.05-21.25 441.2-21.25L441.2-21.25Q443.56-21.25 445.52-20.14 447.48-19.03 448.65-17.03 449.81-15.03 449.81-12.33L449.81-12.33 449.81 0 446.06 0 446.06-11.88Q446.06-14.72 444.45-16.2 442.83-17.67 440.71-17.67L440.71-17.67Q439.39-17.67 438.16-17.08 436.93-16.49 436.15-15.24 435.37-13.99 435.37-11.98L435.37-11.98 435.37 0 431.62 0 431.62-11.88Q431.62-13.85 430.84-15.14 430.05-16.42 428.82-17.07 427.59-17.71 426.27-17.71L426.27-17.71Q424.98-17.71 423.75-17.12 422.52-16.53 421.72-15.28 420.92-14.03 420.92-11.98L420.92-11.98 420.92 0ZM470.22 0L466.47 0 466.47-20.83 470.22-20.83 470.22 0ZM468.35-24.58L468.35-24.58Q467.31-24.58 466.58-25.31 465.85-26.04 465.85-27.08L465.85-27.08Q465.85-28.16 466.58-28.87 467.31-29.58 468.35-29.58L468.35-29.58Q469.42-29.58 470.14-28.87 470.85-28.16 470.85-27.08L470.85-27.08Q470.85-26.04 470.14-25.31 469.42-24.58 468.35-24.58ZM480.64 0L476.89 0 476.89-20.83 480.36-20.83 480.36-17.47Q481.51-19.31 483.33-20.28 485.15-21.25 487.27-21.25L487.27-21.25Q489.49-21.25 491.38-20.16 493.28-19.06 494.46-17 495.64-14.93 495.64-11.98L495.64-11.98 495.64 0 491.89 0 491.89-11.46Q491.89-13.92 490.41-15.82 488.94-17.71 486.26-17.71L486.26-17.71Q484.07-17.71 482.36-16.13 480.64-14.55 480.64-11.56L480.64-11.56 480.64 0ZM508.07 0L504.32 0 504.32-17.71 499.59-17.71 499.59-20.83 504.42-20.83 504.42-27.78 507.96-27.78 507.96-20.83 513.13-20.83 513.13-17.71 508.07-17.71 508.07 0ZM527.02 0.42L527.02 0.42Q524 0.42 521.5-1.04 519-2.5 517.52-4.97 516.05-7.43 516.05-10.42L516.05-10.42Q516.05-13.44 517.52-15.89 519-18.33 521.5-19.79 524-21.25 527.02-21.25L527.02-21.25Q530.08-21.25 532.56-19.79 535.04-18.33 536.52-15.89 537.99-13.44 537.99-10.42L537.99-10.42Q537.99-7.43 536.52-4.97 535.04-2.5 532.56-1.04 530.08 0.42 527.02 0.42ZM527.02-3.13L527.02-3.13Q529.03-3.13 530.67-4.11 532.3-5.1 533.27-6.75 534.24-8.4 534.24-10.42L534.24-10.42Q534.24-12.43 533.27-14.08 532.3-15.73 530.67-16.72 529.03-17.71 527.02-17.71L527.02-17.71Q525.01-17.71 523.38-16.72 521.74-15.73 520.77-14.08 519.8-12.43 519.8-10.42L519.8-10.42Q519.8-8.4 520.77-6.75 521.74-5.1 523.38-4.11 525.01-3.13 527.02-3.13ZM561.39 0.42L561.39 0.42Q558.61 0.42 556.37-0.69 554.13-1.81 552.81-3.4L552.81-3.4 553.96-8.19Q554.93-6.25 556.88-4.69 558.82-3.13 561.53-3.13L561.53-3.13Q564-3.13 565.61-4.69 567.22-6.25 567.22-8.54L567.22-8.54Q567.22-10.21 566.43-11.28 565.63-12.36 564.62-12.99 563.61-13.61 563.02-13.89L563.02-13.89 559.2-15.83Q558.3-16.32 556.96-17.19 555.63-18.06 554.62-19.58 553.61-21.11 553.61-23.54L553.61-23.54Q553.61-25.9 554.71-27.74 555.8-29.58 557.76-30.63 559.72-31.67 562.26-31.67L562.26-31.67Q564.76-31.67 566.67-30.78 568.58-29.9 569.65-28.96L569.65-28.96 568.51-24.17Q567.64-25.63 565.94-26.91 564.24-28.19 562.09-28.19L562.09-28.19Q560-28.19 558.75-26.96 557.5-25.73 557.5-23.92L557.5-23.92Q557.5-22.53 558.14-21.63 558.79-20.73 559.6-20.21 560.42-19.69 560.94-19.41L560.94-19.41 564.83-17.47Q565.52-17.12 566.58-16.49 567.64-15.87 568.68-14.84 569.72-13.82 570.42-12.34 571.11-10.87 571.11-8.78L571.11-8.78Q571.11-6.11 569.85-4.03 568.58-1.94 566.39-0.76 564.2 0.42 561.39 0.42ZM584.48 0.42L584.48 0.42Q582.29 0.42 580.38-0.68 578.47-1.77 577.29-3.85 576.11-5.94 576.11-8.85L576.11-8.85 576.11-20.83 579.86-20.83 579.86-9.38Q579.86-6.91 581.34-5.02 582.81-3.13 585.49-3.13L585.49-3.13Q587.67-3.13 589.39-4.7 591.11-6.28 591.11-9.27L591.11-9.27 591.11-20.83 594.86-20.83 594.86 0 591.39 0 591.39-3.37Q590.24-1.53 588.42-0.56 586.6 0.42 584.48 0.42ZM611.11 0.42L611.11 0.42Q608.05 0.42 605.55-1.04 603.05-2.5 601.56-4.97 600.07-7.43 600.07-10.42L600.07-10.42Q600.07-13.4 601.56-15.87 603.05-18.33 605.55-19.79 608.05-21.25 611.11-21.25L611.11-21.25Q613.36-21.25 615.34-20.45 617.32-19.65 618.82-18.33L618.82-18.33 617.67-13.61Q616.8-15.35 615.05-16.53 613.3-17.71 611.07-17.71L611.07-17.71Q609.06-17.71 607.41-16.72 605.76-15.73 604.79-14.08 603.82-12.43 603.82-10.42L603.82-10.42Q603.82-8.44 604.79-6.77 605.76-5.1 607.41-4.11 609.06-3.13 611.07-3.13L611.07-3.13Q613.3-3.13 615.05-4.27 616.8-5.42 617.67-7.22L617.67-7.22 618.82-2.5Q617.32-1.18 615.34-0.38 613.36 0.42 611.11 0.42ZM632.98 0.42L632.98 0.42Q629.92 0.42 627.42-1.04 624.92-2.5 623.43-4.97 621.94-7.43 621.94-10.42L621.94-10.42Q621.94-13.4 623.43-15.87 624.92-18.33 627.42-19.79 629.92-21.25 632.98-21.25L632.98-21.25Q635.24-21.25 637.22-20.45 639.2-19.65 640.69-18.33L640.69-18.33 639.54-13.61Q638.67-15.35 636.92-16.53 635.17-17.71 632.95-17.71L632.95-17.71Q630.93-17.71 629.28-16.72 627.63-15.73 626.66-14.08 625.69-12.43 625.69-10.42L625.69-10.42Q625.69-8.44 626.66-6.77 627.63-5.1 629.28-4.11 630.93-3.13 632.95-3.13L632.95-3.13Q635.17-3.13 636.92-4.27 638.67-5.42 639.54-7.22L639.54-7.22 640.69-2.5Q639.2-1.18 637.22-0.38 635.24 0.42 632.98 0.42ZM655.2 0.42L655.2 0.42Q651.94 0.42 649.35-1.04 646.76-2.5 645.29-5.02 643.81-7.53 643.81-10.63L643.81-10.63Q643.81-13.58 645.23-15.99 646.66-18.4 649.07-19.83 651.48-21.25 654.4-21.25L654.4-21.25Q657.28-21.25 659.68-19.88 662.08-18.51 663.5-16.18 664.92-13.85 664.92-10.9L664.92-10.9 664.92-9.38 651.31-9.38Q650.41-9.38 649.47-9.44 648.53-9.51 647.63-9.65L647.63-9.65Q648.01-6.88 650.15-5 652.28-3.13 655.23-3.13L655.23-3.13Q657.21-3.13 658.92-4.03 660.62-4.93 661.66-6.42L661.66-6.42 662.7-2.15Q661.21-0.94 659.28-0.26 657.35 0.42 655.2 0.42ZM647.53-12.19L647.53-12.19Q649.4-12.5 651.31-12.5L651.31-12.5 658.22-12.5Q658.98-12.5 659.73-12.45 660.48-12.4 661.24-12.33L661.24-12.33Q660.76-14.76 658.81-16.34 656.87-17.92 654.4-17.92L654.4-17.92Q651.87-17.92 649.96-16.23 648.05-14.55 647.53-12.19ZM675.3 0.42L675.3 0.42Q673.7 0.42 671.88-0.19 670.06-0.8 668.74-2.22L668.74-2.22 669.78-6.32Q670.75-4.69 672.28-3.73 673.81-2.78 675.54-2.78L675.54-2.78Q677.21-2.78 678.04-3.59 678.88-4.41 678.88-5.59L678.88-5.59Q678.88-6.94 677.99-7.57 677.11-8.19 676.41-8.44L676.41-8.44 673.6-9.51Q672.84-9.83 671.76-10.43 670.68-11.04 669.89-12.19 669.09-13.33 669.09-15.17L669.09-15.17Q669.09-16.84 669.89-18.23 670.68-19.62 672.14-20.43 673.6-21.25 675.58-21.25L675.58-21.25Q677.14-21.25 678.84-20.69 680.54-20.14 681.73-18.82L681.73-18.82 680.68-14.72Q679.85-16.25 678.43-17.15 677-18.06 675.48-18.06L675.48-18.06Q674.05-18.06 673.24-17.26 672.42-16.46 672.42-15.42L672.42-15.42Q672.42-14.58 672.98-13.92 673.53-13.26 674.64-12.85L674.64-12.85 677.45-11.77Q678.22-11.49 679.35-10.87 680.48-10.24 681.34-9.06 682.21-7.88 682.21-5.87L682.21-5.87Q682.21-3.06 680.25-1.32 678.29 0.42 675.3 0.42ZM693.01 0.42L693.01 0.42Q691.41 0.42 689.59-0.19 687.76-0.8 686.45-2.22L686.45-2.22 687.49-6.32Q688.46-4.69 689.99-3.73 691.51-2.78 693.25-2.78L693.25-2.78Q694.92-2.78 695.75-3.59 696.58-4.41 696.58-5.59L696.58-5.59Q696.58-6.94 695.7-7.57 694.81-8.19 694.12-8.44L694.12-8.44 691.31-9.51Q690.54-9.83 689.47-10.43 688.39-11.04 687.59-12.19 686.79-13.33 686.79-15.17L686.79-15.17Q686.79-16.84 687.59-18.23 688.39-19.62 689.85-20.43 691.31-21.25 693.29-21.25L693.29-21.25Q694.85-21.25 696.55-20.69 698.25-20.14 699.43-18.82L699.43-18.82 698.39-14.72Q697.56-16.25 696.13-17.15 694.71-18.06 693.18-18.06L693.18-18.06Q691.76-18.06 690.94-17.26 690.13-16.46 690.13-15.42L690.13-15.42Q690.13-14.58 690.68-13.92 691.24-13.26 692.35-12.85L692.35-12.85 695.16-11.77Q695.92-11.49 697.05-10.87 698.18-10.24 699.05-9.06 699.92-7.88 699.92-5.87L699.92-5.87Q699.92-3.06 697.96-1.32 695.99 0.42 693.01 0.42Z" opacity="1" transform="matrix(1,0,0,1,0,0)" fill="#a61713" class="slogan-text-1" data-fill-palette-color="secondary" id="text-1"></path></svg></g></svg></g></svg></g></svg></g><g transform="matrix(1,0,0,1,0,0.19773310399474298)"><svg viewBox="0 0 79.08466347702019 79.09324159790003" height="79.09324159790003" width="79.08466347702019"><g><svg xmlns="http://www.w3.org/2000/svg" xmlns:xlink="http://www.w3.org/1999/xlink" version="1.1" x="0" y="0" viewBox="13.48187499248256 13.473949539302708 73.04517298456165 73.05309601661365" enable-background="new 0 0 100 100" xml:space="preserve" height="79.09324159790003" width="79.08466347702019" class="icon-icon-0" data-fill-palette-color="accent" id="icon-0"><g fill="#ff683c" data-fill-palette-color="accent"><path d="M81.842 18.16A15.9 15.9 0 0 0 70.53 13.474C66.258 13.474 62.24 15.138 59.218 18.16L44.468 32.912A4 4 0 0 0 50.124 38.569L64.876 23.817C66.386 22.307 68.394 21.475 70.529 21.475S74.673 22.307 76.183 23.818C77.693 25.328 78.525 27.335 78.525 29.471S77.693 33.615 76.183 35.125L61.433 49.875A4 4 0 0 0 67.089 55.532L81.841 40.78A15.9 15.9 0 0 0 86.527 29.469 15.9 15.9 0 0 0 81.842 18.16" fill="#ff683c" data-fill-palette-color="accent"></path><path d="M49.875 61.433L35.122 76.185A7.94 7.94 0 0 1 29.469 78.527 7.95 7.95 0 0 1 23.815 76.185C20.699 73.068 20.699 67.995 23.815 64.876L38.567 50.125A4 4 0 0 0 38.567 44.468 4 4 0 0 0 32.912 44.468L18.158 59.22C11.923 65.457 11.923 75.605 18.159 81.841A15.9 15.9 0 0 0 29.469 86.527C33.742 86.527 37.759 84.863 40.78 81.841L55.532 67.089A4 4 0 1 0 49.875 61.433" fill="#ff683c" data-fill-palette-color="accent"></path><path d="M35.985 64.016C36.765 64.797 37.79 65.188 38.813 65.188S40.861 64.797 41.641 64.016L64.015 41.642A4 4 0 0 0 58.359 35.985L35.985 58.359A4 4 0 0 0 35.985 64.016" fill="#ff683c" data-fill-palette-color="accent"></path></g></svg></g></svg></g></svg></g><defs></defs></svg><rect width="395.52" height="62.215138741855164" fill="none" stroke="none" visibility="hidden"></rect></g></svg></g></svg>